<?xml version="1.0" encoding="UTF-8"?>
<svg xmlns="http://www.w3.org/2000/svg" viewBox="0 0 64 64" width="64" height="64">
  <circle cx="32" cy="32" r="28" fill="#1a1a1a"/>
  <path fill="#ffffff" d="M32 14c-9.94 0-18 8.06-18 18 0 7.95 5.16 14.7 12.31 17.08.9.17 1.23-.39 1.23-.87 0-.43-.02-1.85-.02-3.36-5.01 1.09-6.07-2.13-6.07-2.13-.82-2.08-2-2.63-2-2.63-1.63-1.12.12-1.1.12-1.1 1.81.13 2.76 1.86 2.76 1.86 1.61 2.76 4.22 1.96 5.25 1.5.16-1.16.63-1.96 1.14-2.41-3.99-.45-8.19-2-8.19-8.89 0-1.96.7-3.57 1.86-4.83-.19-.46-.81-2.29.18-4.78 0 0 1.51-.48 4.96 1.85a17.2 17.2 0 0 1 4.51-.61c1.53.01 3.07.21 4.51.61 3.45-2.34 4.96-1.85 4.96-1.85.99 2.49.37 4.32.18 4.78 1.16 1.26 1.86 2.87 1.86 4.83 0 6.91-4.21 8.43-8.21 8.87.65.56 1.22 1.66 1.22 3.34 0 2.41-.02 4.36-.02 4.95 0 .49.32 1.05 1.24.87C44.85 46.69 50 39.95 50 32c0-9.94-8.06-18-18-18z"/>
</svg>
